<svg id="Capa_1" enable-background="new 0 0 512 512" height="512" viewBox="0 0 512 512" width="512" xmlns="http://www.w3.org/2000/svg"><g><g><g><path d="m256 55.539c5.523 0 10-4.478 10-10v-35.539c0-5.523-4.477-10-10-10s-10 4.477-10 10v35.539c0 5.523 4.477 10 10 10z"/><path d="m345.302 77.533c1.894 1.646 4.23 2.453 6.557 2.453 2.794 0 5.574-1.165 7.551-3.438l24.88-28.618c3.624-4.168 3.182-10.484-.986-14.108s-10.483-3.182-14.108.985l-24.88 28.618c-3.623 4.168-3.182 10.484.986 14.108z"/><path d="m422.621 159.005c1.692 0 3.407-.431 4.979-1.335l32.9-18.935c4.787-2.755 6.434-8.868 3.679-13.655-2.754-4.786-8.867-6.433-13.655-3.679l-32.9 18.935c-4.787 2.755-6.434 8.868-3.679 13.655 1.85 3.215 5.215 5.014 8.676 5.014z"/><path d="m490.639 235.933h-37.989c-5.523 0-10 4.478-10 10s4.477 10 10 10h37.989c5.523 0 10-4.478 10-10 0-5.523-4.477-10-10-10z"/><path d="m152.59 76.548c1.978 2.274 4.757 3.438 7.551 3.438 2.326 0 4.663-.808 6.557-2.453 4.168-3.624 4.609-9.94.986-14.108l-24.881-28.618c-3.624-4.168-9.94-4.607-14.108-.985-4.168 3.624-4.609 9.94-.986 14.108z"/><path d="m51.501 138.735 32.9 18.935c1.572.905 3.287 1.335 4.979 1.335 3.46 0 6.826-1.799 8.676-5.014 2.755-4.787 1.108-10.9-3.679-13.655l-32.9-18.935c-4.788-2.757-10.901-1.109-13.655 3.679-2.755 4.787-1.108 10.9 3.679 13.655z"/><path d="m69.35 245.933c0-5.522-4.477-10-10-10h-37.99c-5.523 0-10 4.478-10 10s4.477 10 10 10h37.99c5.523 0 10-4.478 10-10z"/><path d="m439.367 442.955v-12.588c0-19.342-14.183-35.432-32.695-38.418v-164.304c0-82.959-67.492-150.451-150.451-150.451h-.441c-82.959 0-150.451 67.492-150.451 150.451v164.305c-18.512 2.986-32.695 19.076-32.695 38.418v12.588c-11.992 3.608-20.752 14.752-20.752 27.903v31.141c0 5.522 4.477 10 10 10h148.912c5.523 0 10-4.478 10-10s-4.477-10-10-10h-138.912v-21.142c0-5.035 4.097-9.132 9.132-9.132h349.973c5.036 0 9.132 4.097 9.132 9.132v21.142h-138.913c-5.523 0-10 4.478-10 10s4.477 10 10 10h148.913c5.523 0 10-4.478 10-10v-31.142c0-13.151-8.761-24.295-20.752-27.903zm-314.038-215.31c0-71.931 58.52-130.451 130.451-130.451h.441c71.931 0 130.451 58.521 130.451 130.451v163.808h-101.959v-74.381c15.52-9.802 25.246-27.228 25.246-46.036 0-29.677-24.206-53.821-53.959-53.821s-53.959 24.145-53.959 53.821c0 18.808 9.727 36.234 25.246 46.036v74.381h-101.958zm116.21 74.474c-11.663-5.48-19.498-17.971-19.498-31.084 0-18.649 15.234-33.821 33.959-33.821s33.959 15.172 33.959 33.821c0 13.113-7.836 25.604-19.498 31.084-3.508 1.647-5.748 5.175-5.748 9.051v80.282h-17.426v-80.282c0-3.876-2.239-7.403-5.748-9.051zm-129.991 109.333h288.904c10.43 0 18.915 8.485 18.915 18.915v11.359h-326.733v-11.359c0-10.429 8.484-18.915 18.914-18.915z"/><path d="m265.05 498.18c-1.583-3.865-5.559-6.369-9.726-6.161-4.119.205-7.761 3.003-9.024 6.926-1.312 4.075.204 8.698 3.699 11.181 3.373 2.396 7.921 2.461 11.371.185 3.924-2.59 5.485-7.803 3.68-12.131z"/></g></g></g></svg>