<?xml version="1.0" encoding="UTF-8" standalone="no"?>
<svg xmlns:dc="http://purl.org/dc/elements/1.1/" xmlns:cc="http://creativecommons.org/ns#" xmlns:rdf="http://www.w3.org/1999/02/22-rdf-syntax-ns#" xmlns:svg="http://www.w3.org/2000/svg" xmlns="http://www.w3.org/2000/svg" xmlns:sodipodi="http://sodipodi.sourceforge.net/DTD/sodipodi-0.dtd" xmlns:inkscape="http://www.inkscape.org/namespaces/inkscape" width="64px" height="64px" viewBox="0 0 64.000001 64.000001" id="svg6016" version="1.1" inkscape:version="0.91 r13725" sodipodi:docname="8.svg">
  <defs id="defs6018"/>
  <sodipodi:namedview id="base" pagecolor="#ffffff" bordercolor="#666666" borderopacity="1.0" inkscape:pageopacity="0.0" inkscape:pageshadow="2" inkscape:zoom="3.959798" inkscape:cx="8.0246071" inkscape:cy="7.8924913" inkscape:document-units="px" inkscape:current-layer="layer1" showgrid="true" units="px" inkscape:snap-bbox="true" inkscape:bbox-nodes="true" inkscape:bbox-paths="true" inkscape:snap-bbox-edge-midpoints="true" inkscape:snap-bbox-midpoints="true" inkscape:window-width="1366" inkscape:window-height="705" inkscape:window-x="-8" inkscape:window-y="-8" inkscape:window-maximized="1">
    <inkscape:grid type="xygrid" id="grid6024"/>
  </sodipodi:namedview>
  
  <g inkscape:label="Layer 1" inkscape:groupmode="layer" id="layer1" transform="translate(0,-988.36216)">
    <path style="color:#000000;font-style:normal;font-variant:normal;font-weight:normal;font-stretch:normal;font-size:medium;line-height:normal;font-family:sans-serif;text-indent:0;text-align:start;text-decoration:none;text-decoration-line:none;text-decoration-style:solid;text-decoration-color:#000000;letter-spacing:normal;word-spacing:normal;text-transform:none;direction:ltr;block-progression:tb;writing-mode:lr-tb;baseline-shift:baseline;text-anchor:start;white-space:normal;clip-rule:nonzero;display:inline;overflow:visible;visibility:visible;opacity:1;isolation:auto;mix-blend-mode:normal;color-interpolation:sRGB;color-interpolation-filters:linearRGB;solid-color:#000000;solid-opacity:1;fill:#000000;fill-opacity:1;fill-rule:evenodd;stroke:none;stroke-width:1px;stroke-linecap:butt;stroke-linejoin:miter;stroke-miterlimit:4;stroke-dasharray:none;stroke-dashoffset:0;stroke-opacity:1;color-rendering:auto;image-rendering:auto;shape-rendering:auto;text-rendering:auto;enable-background:accumulate" d="m 2,995.36212 0,47.00008 -2,0 0,1 2,0 0,2 1,0 0,-2 45,0 0,0.5 0,1 a 0.50005,0.50005 0 0 0 0.5,0.5 l 1,0 7,0 1,0 a 0.50005,0.50005 0 0 0 0.5,-0.5 l 0,-1 0,-1 0,-1 c 0,-0.8223 -0.677643,-1.5 -1.5,-1.5 l -0.5,0 0,-1 c 0,-0.5453 -0.454649,-1 -1,-1 l -0.5,0 0,-3.0801 c 2.129287,-0.3541 3.832418,-1.9521 4.339844,-4.0254 C 60.644773,1030.8691 62,1029.2796 62,1027.3622 l 0,-0.6602 a 0.50005,0.50005 0 0 0 0,-0.033 l 0,-0.035 0,-2.7714 a 0.50005,0.50005 0 0 0 -0.5,-0.5 l -2.5,0 0,-1.5 a 0.50005,0.50005 0 0 0 -0.5,-0.5 l -11,0 a 0.50005,0.50005 0 0 0 -0.5,0.5 l 0,1.5 -2.5,0 a 0.50005,0.50005 0 0 0 -0.5,0.5 l 0,2.5918 a 0.50005,0.50005 0 0 0 0.0059,0.09 0.50004997,0.50004997 0 0 0 -0.0059,0.09 l 0,0.7286 c 0,1.1037 0.446985,2.1091 1.169922,2.832 0.534329,0.5343 1.223633,0.9069 1.992187,1.0703 0.509807,2.0695 2.211291,3.664 4.337891,4.0176 l 0,3.0801 -0.5,0 c -0.545351,0 -1,0.4547 -1,1 l 0,1 -0.5,0 c -0.822357,0 -1.5,0.6777 -1.5,1.5 l 0,0.5 -45,0 0,-47.00008 -1,0 z m 3,3 0,1 1,0 0,-1 -1,0 z m 2,0 0,1 2.9999998,0 0,-1 -2.9999998,0 z m 4,0 0,1 11,0 0,-1 -11,0 z m -6,2.00008 0,1 1,0 0,-1 -1,0 z m 2,0 0,1 2.9999998,0 0,-1 -2.9999998,0 z m 4,0 0,1 11,0 0,-1 -11,0 z m 28.5,4 0,1 2.3125,0 -10.978516,11.2871 -1.99414,-1.9942 -8,8 -2.986328,-2.9843 L 4.5,1031.995 l 0.6777344,0.7363 12.6484376,-11.6758 3.013672,3.0137 8,-8 2.003906,2.0059 11.65625,-11.9864 0,2.2735 1,0 0,-4 -4,0 z m 0,7 0,29 1,0 0,-29 -1,0 z m 9.5,2 c -0.822505,0 -1.500007,0.6775 -1.5,1.5 -7e-6,0.8225 0.677495,1.5 1.5,1.5 0.822504,0 1.500007,-0.6775 1.5,-1.5 7e-6,-0.8225 -0.677496,-1.5 -1.5,-1.5 z m -12.5,1 0,26 1,0 0,-26 -1,0 z m 12.5,0 c 0.282062,0 0.500002,0.218 0.5,0.5 2e-6,0.2821 -0.217938,0.5 -0.5,0.5 -0.282062,0 -0.500002,-0.2179 -0.5,-0.5 -2e-6,-0.282 0.217938,-0.5 0.5,-0.5 z m 9.064453,1.3125 a 0.50005,0.50005 0 0 0 -0.410156,0.7558 l 0.53125,0.918 a 0.50005,0.50005 0 1 0 0.865234,-0.5 l -0.529297,-0.918 a 0.50005,0.50005 0 0 0 -0.457031,-0.2558 z m 2.902344,0.7793 0,0 a 0.50005,0.50005 0 0 0 -0.222656,0.068 l -0.919922,0.5293 a 0.5005087,0.5005087 0 1 0 0.5,0.8672 l 0.919922,-0.5313 a 0.50005,0.50005 0 0 0 -0.277344,-0.9355 z M 33.5,1017.3622 l 0,23 1,0 0,-23 -1,0 z m 10.576172,0.5761 a 0.50005,0.50005 0 0 0 -0.34961,0.8594 l 0.353516,0.3535 -0.353516,0.3535 a 0.50005,0.50005 0 1 0 0.707032,0.7071 l 0.353515,-0.3535 0.353516,0.3535 a 0.50005,0.50005 0 1 0 0.707031,-0.7071 l -0.353515,-0.3535 0.353515,-0.3535 a 0.50005,0.50005 0 0 0 -0.363281,-0.8594 0.50005,0.50005 0 0 0 -0.34375,0.1524 l -0.353516,0.3535 -0.353515,-0.3535 a 0.50005,0.50005 0 0 0 -0.357422,-0.1524 z m 14.175781,0.1035 0,0 a 0.50005,0.50005 0 0 0 -0.271484,0.068 l -0.917969,0.5312 a 0.50005,0.50005 0 1 0 0.5,0.8652 l 0.917969,-0.5293 a 0.50005,0.50005 0 0 0 -0.228516,-0.9375 z m 1.412109,0.3907 a 0.50005,0.50005 0 0 0 -0.410156,0.7558 l 0.53125,0.918 a 0.50005,0.50005 0 1 0 0.865235,-0.5 l -0.53125,-0.918 a 0.50005,0.50005 0 0 0 -0.455079,-0.2558 z M 27.5,1019.3622 l 0,21 1,0 0,-21 -1,0 z m 3,1 0,20 1,0 0,-20 -1,0 z m -6,2 0,18 1,0 0,-18 -1,0 z m 23.5,0 10,0 0,6.3886 0,0.7989 0,0.4238 c 0,2.4401 -1.948554,4.3887 -4.388672,4.3887 l -1.222656,0 C 49.948554,1034.3622 48,1032.4136 48,1029.9735 l 0,-0.3535 0,-0.8692 0,-6.3886 z m -32.5,2 0,16 1,0 0,-16 -1,0 z m 3,0 0,16 1,0 0,-16 -1,0 z m 26.5,0 2,0 0,4.3886 0,0.8692 0,0.3535 c 0,0.075 0.0087,0.1482 0.01172,0.2226 -0.432168,-0.1496 -0.818409,-0.3925 -1.134766,-0.7089 -0.542313,-0.5423 -0.876953,-1.2896 -0.876953,-2.125 l 0,-0.7286 a 0.50004997,0.50004997 0 0 0 -0.0059,-0.092 0.50005,0.50005 0 0 0 0.0059,-0.088 l 0,-2.0918 z m 14,0 2,0 0,2.2343 a 0.50004997,0.50004997 0 0 0 0,0.037 l 0,0.035 0,0.6934 c 0,1.3212 -0.838901,2.4218 -2.011719,2.8281 0.0029,-0.073 0.01172,-0.1436 0.01172,-0.2168 l 0,-0.4238 0,-0.7989 0,-4.3886 z m -37.5,1 0,15 1,0 0,-15 -1,0 z m 31.496094,0.2382 a 0.50004999,0.50004999 0 0 0 -0.455078,0.2793 l -0.648438,1.3321 -1.466797,0.2226 a 0.50004999,0.50004999 0 0 0 -0.273437,0.8535 l 1.068359,1.0274 -0.244141,1.4648 a 0.50004999,0.50004999 0 0 0 0.728516,0.5235 l 1.308594,-0.6953 1.316406,0.6835 a 0.50004999,0.50004999 0 0 0 0.720703,-0.5332 l -0.257812,-1.4609 1.058593,-1.0371 a 0.50004999,0.50004999 0 0 0 -0.283203,-0.8516 l -1.466797,-0.207 -0.664062,-1.3262 a 0.50004999,0.50004999 0 0 0 -0.390625,-0.2715 0.50004999,0.50004999 0 0 0 -0.05078,0 z m -0.002,1.6289 0.330078,0.6543 a 0.50004999,0.50004999 0 0 0 0.376953,0.2735 l 0.726562,0.1015 -0.523437,0.5137 a 0.50004999,0.50004999 0 0 0 -0.140625,0.4414 l 0.126953,0.7246 -0.650391,-0.3379 a 0.50004999,0.50004999 0 0 0 -0.466796,0 l -0.646485,0.3418 0.121094,-0.7207 a 0.50004999,0.50004999 0 0 0 -0.144531,-0.4433 l -0.527344,-0.5078 0.724609,-0.1094 a 0.50004999,0.50004999 0 0 0 0.376953,-0.2754 l 0.316407,-0.6563 z m -40.494141,0.1329 0,13 1,0 0,-13 -1,0 z m -3.0000002,3 0,10 1.0000002,0 0,-10 -1.0000002,0 z m -2.9999998,3 0,7 1,0 0,-7 -1,0 z m 38.740234,1.2734 a 0.50005,0.50005 0 0 0 -0.410156,0.7559 l 0.492188,0.8554 a 0.50050307,0.50050307 0 1 0 0.867187,-0.5 l -0.494141,-0.8554 a 0.50005,0.50005 0 0 0 -0.455078,-0.2559 z m 2.775391,0.7246 0,0 a 0.50004997,0.50004997 0 0 0 -0.271484,0.068 l -0.867188,0.502 a 0.50004997,0.50004997 0 1 0 0.5,0.8652 l 0.867188,-0.5 a 0.50004997,0.50004997 0 0 0 -0.228516,-0.9375 z m 4.484375,0 1,0 0,3 -1,0 0,-3 z m 5.5,0 a 0.50000232,0.50000232 0 0 0 -0.5,0.5 0.50000232,0.50000232 0 0 0 0.5,0.5 0.50000232,0.50000232 0 0 0 0.5,-0.5 0.50000232,0.50000232 0 0 0 -0.5,-0.5 z m -12.59375,1.498 0,0 a 0.50005,0.50005 0 0 0 -0.271484,0.068 l -0.855469,0.4942 a 0.50005,0.50005 0 1 0 0.5,0.8652 l 0.855469,-0.4922 a 0.50005,0.50005 0 0 0 -0.228516,-0.9375 z m 1.337891,0.3711 a 0.50004997,0.50004997 0 0 0 -0.410157,0.7559 l 0.494141,0.8535 a 0.50004997,0.50004997 0 1 0 0.865234,-0.5 l -0.492187,-0.8535 a 0.50004997,0.50004997 0 0 0 -0.457031,-0.2559 z m 12.832031,1.707 a 0.50005,0.50005 0 0 0 -0.34961,0.8594 l 0.353516,0.3535 -0.353516,0.3535 a 0.50005,0.50005 0 1 0 0.707032,0.7071 l 0.353515,-0.3535 0.353516,0.3535 a 0.50005,0.50005 0 1 0 0.707031,-0.7071 l -0.353515,-0.3535 0.353515,-0.3535 a 0.50005,0.50005 0 0 0 -0.363281,-0.8594 0.50005,0.50005 0 0 0 -0.34375,0.1524 l -0.353516,0.3535 -0.353515,-0.3535 a 0.50005,0.50005 0 0 0 -0.357422,-0.1524 z m -8.576172,0.4239 4,0 0,1 -4,0 0,-1 z m -7.5,1 a 0.50000232,0.50000232 0 0 0 -0.5,0.5 0.50000232,0.50000232 0 0 0 0.5,0.5 0.50000232,0.50000232 0 0 0 0.5,-0.5 0.50000232,0.50000232 0 0 0 -0.5,-0.5 z m 6,1 7,0 c 0.285663,0 0.5,0.2144 0.5,0.5 l 0,1 0,1 0,0.5 -0.5,0 -7,0 -0.5,0 0,-0.5 0,-1 0,-1 c 0,-0.2856 0.214337,-0.5 0.5,-0.5 z m 1.5,1 0,1 4,0 0,-1 -4,0 z" id="path7830" inkscape:connector-curvature="0"/>
  </g>

	
	
	<metadata>
		<rdf:RDF xmlns:rdf="http://www.w3.org/1999/02/22-rdf-syntax-ns#" xmlns:rdfs="http://www.w3.org/2000/01/rdf-schema#" xmlns:dc="http://purl.org/dc/elements/1.1/">
			<rdf:Description about="https://iconscout.com/legal#licenses" dc:title="Business, Financial, Growth, Achievement, Goals, Trophy" dc:description="Business, Financial, Growth, Achievement, Goals, Trophy" dc:publisher="Iconscout" dc:date="2016-12-14" dc:format="image/svg+xml" dc:language="en">
				<dc:creator>
					<rdf:Bag>
						<rdf:li>Jemis Mali</rdf:li>
					</rdf:Bag>
				</dc:creator>
			</rdf:Description>
		</rdf:RDF>
    </metadata></svg>
