<svg xmlns="http://www.w3.org/2000/svg" enable-background="new 0 0 64 64" viewBox="0 0 64 64"><path d="M33.82,44.47c11.06,0,20.05-9,20.05-20.05s-9-20.05-20.05-20.05c-11.06,0-20.05,9-20.05,20.05S22.76,44.47,33.82,44.47z
		 M33.82,6.3c9.99,0,18.12,8.13,18.12,18.12s-8.13,18.12-18.12,18.12c-9.99,0-18.12-8.13-18.12-18.12S23.83,6.3,33.82,6.3z"/><path d="M33.82,39.75c8.46,0,15.34-6.88,15.34-15.34c0-8.46-6.88-15.34-15.34-15.34c-8.46,0-15.34,6.88-15.34,15.34
		C18.48,32.87,25.36,39.75,33.82,39.75z M33.82,11.02c7.39,0,13.4,6.01,13.4,13.4s-6.01,13.4-13.4,13.4c-7.39,0-13.4-6.01-13.4-13.4
		S26.43,11.02,33.82,11.02z"/><path d="M29.26,30.73c0.08,0.08,0.21,0.17,0.38,0.26c0.17,0.09,0.38,0.18,0.62,0.26c0.24,0.08,0.52,0.16,0.83,0.23
		c0.31,0.07,0.65,0.13,1.02,0.18l-0.26,2.47c-0.02,0.06-0.01,0.12,0.01,0.17c0.02,0.05,0.06,0.09,0.12,0.11
		c0.06,0.03,0.14,0.05,0.25,0.07c0.1,0.02,0.24,0.03,0.42,0.03c0.15,0,0.28-0.01,0.37-0.02c0.1-0.02,0.17-0.04,0.22-0.06
		c0.05-0.03,0.09-0.06,0.11-0.1c0.02-0.04,0.03-0.09,0.04-0.13l0.25-2.48c0.76-0.04,1.45-0.16,2.07-0.38
		c0.62-0.21,1.14-0.5,1.56-0.86c0.43-0.36,0.76-0.79,0.99-1.28c0.23-0.5,0.35-1.05,0.35-1.66c0-0.64-0.1-1.18-0.31-1.62
		c-0.21-0.44-0.48-0.81-0.82-1.11c-0.34-0.3-0.72-0.56-1.16-0.75c-0.43-0.2-0.88-0.38-1.33-0.54c-0.45-0.16-0.9-0.32-1.33-0.47
		c-0.43-0.15-0.82-0.33-1.16-0.55c-0.34-0.21-0.61-0.47-0.82-0.78c-0.21-0.3-0.31-0.68-0.31-1.14c0-0.3,0.05-0.57,0.15-0.82
		c0.1-0.25,0.27-0.47,0.49-0.65c0.22-0.18,0.52-0.32,0.88-0.42c0.36-0.1,0.8-0.15,1.31-0.15c0.45,0,0.86,0.05,1.22,0.15
		c0.37,0.1,0.69,0.21,0.96,0.32c0.28,0.11,0.51,0.22,0.69,0.32c0.18,0.1,0.32,0.15,0.4,0.15c0.05,0,0.1-0.02,0.14-0.05
		c0.04-0.03,0.07-0.08,0.09-0.14c0.02-0.06,0.04-0.14,0.05-0.25c0.01-0.11,0.02-0.23,0.02-0.38c0-0.11-0.01-0.22-0.02-0.31
		c-0.01-0.09-0.02-0.17-0.04-0.24c-0.02-0.07-0.04-0.13-0.06-0.18c-0.03-0.05-0.07-0.11-0.14-0.17c-0.06-0.06-0.18-0.14-0.36-0.22
		c-0.17-0.09-0.37-0.17-0.59-0.24c-0.22-0.07-0.45-0.14-0.7-0.19c-0.25-0.06-0.49-0.1-0.71-0.12l0.25-2.28
		c0-0.06-0.01-0.11-0.02-0.16c-0.02-0.05-0.05-0.09-0.11-0.12c-0.06-0.03-0.14-0.06-0.25-0.07c-0.11-0.02-0.25-0.02-0.42-0.02
		c-0.16,0-0.29,0.01-0.38,0.02c-0.09,0.01-0.16,0.03-0.22,0.06c-0.05,0.03-0.09,0.07-0.11,0.11c-0.02,0.04-0.03,0.09-0.04,0.13
		l-0.23,2.31c-0.71,0.05-1.33,0.17-1.86,0.38c-0.53,0.21-0.97,0.48-1.32,0.81c-0.35,0.33-0.61,0.72-0.79,1.16
		c-0.17,0.44-0.26,0.92-0.26,1.43c0,0.64,0.1,1.18,0.31,1.62c0.21,0.44,0.48,0.81,0.81,1.11c0.33,0.3,0.72,0.56,1.15,0.76
		c0.43,0.21,0.87,0.39,1.31,0.55c0.45,0.16,0.88,0.32,1.31,0.47c0.43,0.16,0.81,0.34,1.15,0.56c0.34,0.22,0.61,0.48,0.82,0.78
		c0.21,0.3,0.31,0.68,0.31,1.12c0,0.73-0.28,1.31-0.84,1.73c-0.56,0.43-1.38,0.64-2.46,0.64c-0.61,0-1.13-0.06-1.56-0.17
		c-0.43-0.11-0.8-0.24-1.1-0.37c-0.3-0.13-0.54-0.26-0.72-0.37C29.68,29.06,29.54,29,29.44,29c-0.07,0-0.13,0.01-0.18,0.04
		c-0.05,0.03-0.09,0.08-0.12,0.15c-0.03,0.07-0.05,0.16-0.07,0.27c-0.02,0.11-0.02,0.25-0.02,0.42c0,0.23,0.02,0.41,0.05,0.54
		C29.13,30.55,29.18,30.65,29.26,30.73z"/><path d="M63.03,28.48c-0.54,0-0.97,0.43-0.97,0.97c0,15.58-12.67,28.25-28.25,28.25C19.46,57.7,7.6,47.09,5.8,33.14l2.5,2.28
		c0.4,0.36,1.01,0.33,1.37-0.06c0.36-0.39,0.33-1.01-0.06-1.37l-4.33-3.95c-0.19-0.18-0.44-0.29-0.71-0.27c-0.01,0-0.01,0-0.02,0
		c-0.01,0-0.01,0-0.02,0c-0.06,0.01-0.11,0.03-0.17,0.05c-0.06,0.02-0.13,0.03-0.18,0.05c-0.06,0.03-0.1,0.07-0.15,0.11
		c-0.05,0.04-0.1,0.07-0.15,0.12c-0.01,0.01-0.02,0.02-0.03,0.03l-3.64,4.62c-0.33,0.42-0.26,1.03,0.16,1.36
		c0.18,0.14,0.39,0.21,0.6,0.21c0.29,0,0.57-0.13,0.76-0.37l2.13-2.7c1.87,14.98,14.58,26.38,29.95,26.38
		C50.46,59.64,64,46.1,64,29.45C64,28.91,63.57,28.48,63.03,28.48z"/></svg>