<svg xmlns="http://www.w3.org/2000/svg" width="32" height="32" enable-background="new 0 0 32 32" viewBox="0 0 32 32"><rect width="32" height="32" fill="none"/><path d="M29,21h-0.99l-0.299-0.337C26.775,19.606,25.423,19,24,19s-2.775,0.606-3.711,1.663L19.99,21H3
			c-0.458,0-0.904-0.159-1.255-0.447C1.278,20.187,1,19.615,1,19V3c0-1.103,0.897-2,2-2h26c1.103,0,2,0.897,2,2v16
			C31,20.103,30.103,21,29,21z M28.89,19H29V3.003L3,3v16h16.11c1.294-1.276,3.051-2,4.89-2S27.596,17.724,28.89,19z M29,3h1H29
			L29,3L29,3z"/><path d="M11 13H7c-1.103 0-2-.897-2-2V7c0-1.103.897-2 2-2h4c1.103 0 2 .897 2 2v4C13 12.103 12.103 13 11 13zM7 7v4h4.001L11 7H7zM19 10h-3c-.552 0-1-.447-1-1s.448-1 1-1h3c.553 0 1 .447 1 1S19.553 10 19 10zM26 10h-3c-.553 0-1-.447-1-1s.447-1 1-1h3c.553 0 1 .447 1 1S26.553 10 26 10zM16 17H6c-.552 0-1-.447-1-1s.448-1 1-1h10c.552 0 1 .447 1 1S16.552 17 16 17zM24 31c-2.973 0-5.623-1.877-6.595-4.672C17.138 25.596 17 24.808 17 24c0-1.732.639-3.391 1.799-4.672C20.106 17.852 22.005 17 24 17s3.894.852 5.209 2.337C30.361 20.609 31 22.268 31 24c0 .647-.091 1.289-.27 1.908C29.899 28.901 27.131 31 24 31zM24 19c-1.423 0-2.775.606-3.711 1.663C19.455 21.583 19 22.766 19 24c0 .573.098 1.131.289 1.657C19.986 27.662 21.878 29 24 29c2.235 0 4.212-1.496 4.806-3.638C28.937 24.908 29 24.466 29 24c0-1.234-.455-2.417-1.281-3.328C26.775 19.606 25.423 19 24 19z"/><path d="M25.999,25.001C25.999,25.001,25.999,25.001,25.999,25.001l-4.001-0.002c-0.552,0-0.999-0.448-0.999-1
			c0-0.553,0.448-1,1-1c0,0,0,0,0.001,0l4,0.002c0.552,0,0.999,0.448,0.999,1C26.999,24.554,26.551,25.001,25.999,25.001z"/><path d="M22,25c-0.256,0-0.512-0.098-0.707-0.293c-0.391-0.391-0.391-1.023,0-1.414l2-2c0.391-0.391,1.023-0.391,1.414,0
			s0.391,1.023,0,1.414l-2,2C22.512,24.902,22.256,25,22,25z"/><path d="M24,27c-0.256,0-0.512-0.098-0.707-0.293l-2-2c-0.391-0.391-0.391-1.023,0-1.414s1.023-0.391,1.414,0l2,2
			c0.391,0.391,0.391,1.023,0,1.414C24.512,26.902,24.256,27,24,27z"/></svg>