<svg id="Capa_1" enable-background="new 0 0 512 512" height="512" viewBox="0 0 512 512" width="512" xmlns="http://www.w3.org/2000/svg"><g><path d="m38.178 122.857c-8.284 0-15 6.716-15 15s6.716 15 15 15h48.504c6.824 0 12.762 4.62 14.44 11.234 62.058 244.601 52.8 207.511 61.253 243.219 4.326 18.276 16.862 32.717 33.174 39.837-2.959 5.992-4.629 12.73-4.629 19.853 0 24.813 20.187 45 45 45s45-20.187 45-45c0-5.258-.915-10.305-2.58-15h74.91c-1.665 4.695-2.58 9.742-2.58 15 0 24.813 20.187 45 45 45s45-20.187 45-45c0-5.473-.985-10.719-2.782-15.575 6.302-1.777 10.926-7.555 10.926-14.425 0-8.284-6.716-15-15-15h-214.934c-13.07 0-24.301-8.883-27.312-21.601l-1.988-8.399h209.136c30.312 0 56.367-20.562 63.424-50.024l26.191-100.649c2.47-9.49-4.702-18.777-14.517-18.777h-4.458l-7.881-148.346c-.422-7.964-7.003-14.204-14.978-14.204h-21.232v-10.547c0-27.268-22.185-49.453-49.453-49.453s-49.453 22.185-49.453 49.453v10.547h-21.231c-8 0-14.593 6.279-14.982 14.27l-1.379 28.28h-136.49c-7.47 0-13.801 5.496-14.851 12.891l-6.35 44.718-.874-3.446c-5.058-19.934-22.953-33.856-43.519-33.856zm357.492 329.143c8.271 0 15 6.729 15 15s-6.729 15-15 15-15-6.729-15-15 6.729-15 15-15zm-159.75 0c8.271 0 15 6.729 15 15s-6.729 15-15 15-15-6.729-15-15 6.729-15 15-15zm218.491-199.45-21.344 82.023c-.027.107-.055.214-.08.322-3.777 15.959-17.87 27.105-34.271 27.105h-216.431l-27.769-109.45zm-98.052-203.097c0-10.726 8.727-19.453 19.453-19.453s19.453 8.727 19.453 19.453v10.547c-14.078 0-24.826 0-38.906 0zm-36.946 40.547h112.859l7.043 132.55h-48.51l-2.287-45.749c-.399-7.983-6.988-14.251-14.981-14.251h-57.661zm39.855 102.55 1.5 30h-116.42l1.5-30zm-193.972-60h122.007l-1.463 30h-54.26c-7.993 0-14.582 6.268-14.981 14.251l-2.287 45.749h-61.796z"/></g></svg>