<?xml version="1.0" encoding="iso-8859-1"?>
<!-- Generator: Adobe Illustrator 19.0.0, SVG Export Plug-In . SVG Version: 6.00 Build 0)  -->
<svg version="1.1" id="Capa_1" xmlns="http://www.w3.org/2000/svg" xmlns:xlink="http://www.w3.org/1999/xlink" x="0px" y="0px"
	 viewBox="0 0 512 512" style="enable-background:new 0 0 512 512;" xml:space="preserve">
<g>
	<g>
		<path d="M261.402,168.639h-3.305v-15.071c0-4.142-3.357-7.5-7.5-7.5s-7.5,3.358-7.5,7.5v17.571c0,6.893,5.607,12.5,12.5,12.5
			h5.805c4.143,0,7.5-3.358,7.5-7.5C268.902,171.997,265.545,168.639,261.402,168.639z"/>
	</g>
</g>
<g>
	<g>
		<path d="M287.501,194.588c-2.923-2.938-7.672-2.948-10.607-0.028c-11.522,11.461-30.267,11.461-41.786,0.001
			c-2.937-2.923-7.685-2.91-10.607,0.027c-2.921,2.936-2.91,7.685,0.027,10.606c8.678,8.634,20.074,12.948,31.472,12.948
			c11.397,0,22.797-4.317,31.473-12.948C290.409,202.273,290.422,197.524,287.501,194.588z"/>
	</g>
</g>
<g>
	<g>
		<path d="M128.725,468.245h-11.184c-4.143,0-7.5,3.358-7.5,7.5c0,4.142,3.357,7.5,7.5,7.5h11.184c4.142,0,7.5-3.358,7.5-7.5
			C136.225,471.603,132.868,468.245,128.725,468.245z"/>
	</g>
</g>
<g>
	<g>
		<path d="M128.725,444.876h-11.184c-4.143,0-7.5,3.358-7.5,7.5c0,4.142,3.357,7.5,7.5,7.5h11.184c4.142,0,7.5-3.358,7.5-7.5
			C136.225,448.234,132.868,444.876,128.725,444.876z"/>
	</g>
</g>
<g>
	<g>
		<path d="M391.941,441.538h-23.082c-5.79,0-10.5,4.71-10.5,10.5v22.933c0,5.79,4.71,10.5,10.5,10.5h23.082
			c5.79,0,10.5-4.711,10.5-10.5v-22.933C402.441,446.248,397.731,441.538,391.941,441.538z M387.441,470.471h-14.082v-13.933h14.082
			V470.471z"/>
	</g>
</g>
<g>
	<g>
		<path d="M420.217,396.5c4.143,0,7.5-3.358,7.5-7.5V283.78c0-6.893-5.607-12.5-12.5-12.5h-18.682
			c-2.271-13.749-14.281-24.273-28.717-24.273H293.75v-4.56c5.723-2.542,11.263-5.659,16.544-9.348
			c3.396-2.372,4.227-7.047,1.854-10.443c-2.37-3.396-7.047-4.227-10.442-1.854c-13.803,9.64-29.607,14.735-45.706,14.735
			c-22.507,0-43.947-9.787-60.372-27.558c-16.076-17.394-25.296-40.715-25.296-63.982v-19.303h39.521
			c23.958,0,46.574-11.111,61.356-29.598c14.781,18.486,37.397,29.598,61.355,29.598h9.103v19.303
			c0,18.297-5.464,36.232-15.8,51.867c-2.285,3.455-1.336,8.108,2.119,10.393c3.457,2.285,8.109,1.335,10.393-2.12
			c2.714-4.105,5.122-8.354,7.247-12.71h8.148c18.135,0,32.889-14.695,32.889-32.759c0-11.163-5.639-21.035-14.226-26.949
			c0.826-5.576,1.253-11.231,1.253-16.943C373.691,51.488,322.275,0,259.076,0h-6.15c-63.2,0-114.617,51.488-114.617,114.775
			c0,5.712,0.427,11.367,1.253,16.944c-8.587,5.914-14.226,15.785-14.226,26.948c0,18.063,14.755,32.759,32.891,32.759h8.189
			c4.709,9.705,10.828,18.762,18.196,26.735c9.843,10.65,21.264,18.852,33.638,24.339v4.508h-74.068
			c-14.436,0-26.445,10.523-28.717,24.273H96.783c-6.893,0-12.5,5.607-12.5,12.5V499.5c0,6.893,5.607,12.5,12.5,12.5h94.092h130.234
			h94.107c6.893,0,12.5-5.607,12.5-12.5V425c0-4.142-3.357-7.5-7.5-7.5s-7.5,3.358-7.5,7.5v72h-79.139
			c1.574-4.524,2.389-9.313,2.389-14.237c0-11.618-4.545-22.534-12.795-30.735c-4.895-4.872-10.752-8.431-17.142-10.527h8.993
			c7.848,0,18.875-2.297,25.813-7.429l5.41-4c3.758-2.779,6.209-6.856,6.902-11.48c0.691-4.623-0.459-9.239-3.238-12.999
			c-0.049-0.067-0.104-0.129-0.153-0.195c1.337-0.776,2.581-1.604,3.683-2.479l6.293-5.002c7.553-6.005,8.811-17.036,2.807-24.586
			c-1.294-1.629-2.842-2.98-4.559-4.033l2.508-2.237c7.201-6.422,7.836-17.506,1.412-24.709c-2.713-3.041-6.396-4.998-10.374-5.618
			c1.136-2.299,1.772-4.832,1.811-7.472c0.061-3.989-1.219-7.789-3.617-10.903h62.996V389
			C412.717,393.142,416.074,396.5,420.217,396.5z M371.664,158.667c0,9.792-8.025,17.759-17.889,17.759h-2.146
			c3.317-10.479,5.039-21.391,5.039-32.429v-2.834C365.158,142.542,371.664,149.855,371.664,158.667z M158.227,176.426
			c-9.865,0-17.891-7.966-17.891-17.759c0-8.812,6.506-16.124,14.996-17.504v2.834c0,10.958,1.759,21.923,5.092,32.429H158.227z
			 M162.832,109.694c-4.143,0-7.5,3.358-7.5,7.5v8.85c-0.458,0.04-0.912,0.093-1.365,0.151c-0.433-3.771-0.658-7.58-0.658-11.42
			c0-55.016,44.689-99.775,99.617-99.775h6.15c54.928,0,99.615,44.759,99.615,99.775c0,3.841-0.225,7.649-0.658,11.42
			c-0.453-0.059-0.907-0.112-1.365-0.152v-8.849c0-4.142-3.358-7.5-7.5-7.5h-16.603c-22.484,0-43.512-12.108-54.876-31.599
			c-1.345-2.305-3.811-3.722-6.479-3.722c-2.668,0-5.135,1.417-6.48,3.722c-11.364,19.491-32.392,31.599-54.876,31.599H162.832z
			 M99.283,286.28h61.727v17.077H99.283V286.28z M188.815,452.024c-8.243,8.197-12.782,19.113-12.782,30.738
			c0,4.926,0.813,9.715,2.384,14.237H99.283V318.357h62.996c-2.397,3.115-3.678,6.914-3.617,10.903
			c0.039,2.64,0.676,5.173,1.812,7.472c-3.977,0.621-7.66,2.578-10.374,5.619c-6.424,7.202-5.789,18.286,1.412,24.708l2.508,2.237
			c-1.717,1.054-3.264,2.404-4.557,4.031c-6.006,7.553-4.748,18.583,2.807,24.589l6.289,5.001c1.103,0.876,2.347,1.704,3.686,2.481
			c-0.051,0.066-0.104,0.128-0.154,0.195c-2.779,3.758-3.93,8.374-3.238,12.997c0.693,4.624,3.145,8.7,6.902,11.48l5.41,4
			c6.939,5.132,17.965,7.429,25.813,7.429h8.98C199.567,443.596,193.709,447.154,188.815,452.024z M236.279,322h-39.303
			c-1.182,0-2.955-0.533-3.848-0.917l-2.809-2.726h45.96V322z M196.976,337h39.304v5h-39.304c-5.414,0-13.309-2.228-17.148-5.955
			l-5.41-5.251c-0.646-0.628-0.752-1.371-0.758-1.757c-0.006-0.387,0.078-1.132,0.703-1.776c0.643-0.662,1.402-0.76,1.799-0.76
			c0.461,0,1.137,0.122,1.738,0.706l5.41,5.25c0.119,0.117,0.244,0.229,0.371,0.337C186.415,335.113,192.38,337,196.976,337z
			 M185.738,362.72h50.542v4.999h-50.542c-6.143,0-14.027-2.743-17.953-6.243l-6.289-5.61c-1.029-0.917-1.119-2.501-0.203-3.529
			c0.65-0.728,1.451-0.836,1.871-0.836c0.432,0,1.072,0.11,1.66,0.635l6.289,5.609C174.136,360.442,180.834,362.72,185.738,362.72z
			 M196.976,426.5c-5.246,0-12.951-1.574-16.895-4.489l-5.41-4.001c-0.723-0.536-0.928-1.257-0.984-1.64
			c-0.059-0.382-0.074-1.132,0.463-1.858c0.676-0.914,1.635-1.013,2.016-1.013c0.373,0,0.932,0.085,1.48,0.49l5.408,4.001
			c0.139,0.103,0.281,0.201,0.428,0.294c2.781,1.773,8.834,3.215,13.494,3.215h39.304v5.001H196.976z M236.28,441.5v1.065
			c-0.961-0.394-1.941-0.741-2.929-1.065H236.28z M185.738,396.719c-6.098,0-13.936-2.435-17.846-5.543l-6.289-5
			c-1.078-0.858-1.258-2.434-0.4-3.514c0.678-0.852,1.6-0.944,1.963-0.944c0.396,0,0.984,0.094,1.551,0.543l6.287,5
			c2.986,2.375,9.871,4.457,14.734,4.457h50.542v5.001H185.738z M219.242,487.162c-2.34,0-4.244-1.877-4.244-4.185
			c0-2.307,1.904-4.184,4.244-4.184c2.34,0,4.244,1.877,4.244,4.184C223.486,485.285,221.582,487.162,219.242,487.162z
			 M290.272,487.162c-2.341,0-4.246-1.877-4.246-4.185c0-2.307,1.905-4.184,4.246-4.184c2.339,0,4.242,1.877,4.242,4.184
			C294.514,485.285,292.61,487.162,290.272,487.162z M312.592,462.663c5.401,5.367,8.375,12.505,8.375,20.1
			c0,5.081-1.316,9.94-3.834,14.237H303.36c3.774-3.505,6.153-8.486,6.153-14.022c0-10.578-8.632-19.184-19.242-19.184
			c-10.612,0-19.246,8.606-19.246,19.184c0,5.536,2.379,10.518,6.154,14.022h-44.848c3.775-3.505,6.154-8.486,6.154-14.022
			c0-10.578-8.633-19.184-19.244-19.184c-10.611,0-19.244,8.606-19.244,19.184c0,5.536,2.379,10.518,6.154,14.022h-11.297
			c-2.51-4.294-3.822-9.153-3.822-14.237c0-7.603,2.969-14.742,8.36-20.103c5.409-5.382,12.605-8.347,20.265-8.347
			c7.656,0,14.852,2.964,20.264,8.348l10.783,10.727c2.926,2.91,7.651,2.91,10.577,0.001l10.79-10.729
			c5.406-5.382,12.601-8.346,20.256-8.346C299.986,454.314,307.182,457.278,312.592,462.663z M251.28,452.801V318.357h9.439v134.436
			l-4.725,4.698L251.28,452.801z M275.72,442.56v-1.06h2.916C277.652,441.823,276.677,442.168,275.72,442.56z M338.313,416.37
			c-0.057,0.382-0.262,1.104-0.984,1.64l-5.412,4.001c-3.941,2.916-11.646,4.489-16.893,4.489H275.72v-5h39.304
			c4.674,0,10.766-1.469,13.58-3.275c0.139-0.09,0.275-0.184,0.408-0.283l5.344-3.953c0.547-0.405,1.105-0.491,1.477-0.491
			c0.381,0,1.34,0.099,2.018,1.015C338.387,415.238,338.371,415.988,338.313,416.37z M350.397,386.175l-6.293,5.002
			c-3.908,3.107-11.746,5.542-17.842,5.542H275.72v-5h50.542c4.861,0,11.746-2.083,14.732-4.456l6.289-5
			c0.566-0.45,1.156-0.544,1.551-0.544c0.365,0,1.285,0.092,1.963,0.945C351.654,383.742,351.475,385.318,350.397,386.175z
			 M350.705,352.335c0.918,1.029,0.828,2.613-0.201,3.53l-6.291,5.611c-3.924,3.5-11.811,6.243-17.951,6.243H275.72v-5h50.542
			c4.904,0,11.602-2.278,14.623-4.975l6.291-5.609c0.588-0.524,1.228-0.635,1.662-0.635
			C349.258,351.5,350.059,351.609,350.705,352.335z M315.024,337c4.602,0,10.59-1.908,13.348-4.254
			c0.125-0.107,0.246-0.217,0.363-0.331l5.365-5.209c0.602-0.583,1.277-0.706,1.74-0.706c0.395,0,1.154,0.099,1.795,0.758
			c0.627,0.646,0.711,1.392,0.705,1.778c-0.006,0.387-0.111,1.129-0.758,1.757l-5.412,5.251c-3.838,3.727-11.732,5.955-17.146,5.955
			H275.72V337H315.024z M275.72,322v-3.643h45.96l-2.791,2.711c-0.881,0.387-2.67,0.932-3.865,0.932H275.72z M176.01,303.358
			L176.01,303.358V286.28H194c4.143,0,7.5-3.358,7.5-7.5c0-4.142-3.357-7.5-7.5-7.5h-63.083c1.96-5.397,7.157-9.272,13.265-9.272
			h81.568c4.143,0,7.5-3.358,7.5-7.5v-6.813c7.393,1.874,15.013,2.843,22.75,2.843c7.694,0,15.319-0.986,22.75-2.883v6.854
			c0,4.142,3.357,7.5,7.5,7.5h81.568c6.107,0,11.305,3.876,13.265,9.272H236c-4.143,0-7.5,3.358-7.5,7.5c0,4.142,3.357,7.5,7.5,7.5
			h176.717v17.077H176.01z"/>
	</g>
</g>
<g>
	<g>
		<path d="M212.572,129.527c-4.143,0-7.5,3.358-7.5,7.5v17.906c0,4.142,3.357,7.5,7.5,7.5s7.5-3.358,7.5-7.5v-17.906
			C220.072,132.885,216.715,129.527,212.572,129.527z"/>
	</g>
</g>
<g>
	<g>
		<path d="M299.428,129.527c-4.143,0-7.5,3.358-7.5,7.5v17.906c0,4.142,3.357,7.5,7.5,7.5c4.142,0,7.5-3.358,7.5-7.5v-17.906
			C306.928,132.885,303.571,129.527,299.428,129.527z"/>
	</g>
</g>
<g>
</g>
<g>
</g>
<g>
</g>
<g>
</g>
<g>
</g>
<g>
</g>
<g>
</g>
<g>
</g>
<g>
</g>
<g>
</g>
<g>
</g>
<g>
</g>
<g>
</g>
<g>
</g>
<g>
</g>
</svg>
